<!--?xml version="1.0" encoding="UTF-8" standalone="no"?-->
<svg viewport-fill="#ffffff" xmlns:dc="http://purl.org/dc/elements/1.1/" xmlns:cc="http://creativecommons.org/ns#" xmlns:rdf="http://www.w3.org/1999/02/22-rdf-syntax-ns#" xmlns:svg="http://www.w3.org/2000/svg" xmlns="http://www.w3.org/2000/svg" xmlns:xlink="http://www.w3.org/1999/xlink" id="svg579294" viewBox="0 0 1024 768" height="768px" width="1024px" version="1.1">
  
  <defs id="defs579298"></defs>
  <style><![CDATA[   #title path, #tagline path, #letter path, #title polygon, #tagline polygon, #letter polygon{ fill: #000000 !important; } #icon *{ fill: #000000 !important; } ]]> </style><g id="logo-group"><rect x="0" y="0" width="1024" height="768" style="fill: #ffffff" />
    <g id="icon" transform="translate(0 302.2480000000007) translate(229.16413192487693 17.191999999998323) scale(1.6666666666667) translate(-371.56962 50.4)"><svg x="319.6079298591549" y="-111.3698028169014" width="173.2056338028169" height="173.2056338028169" viewBox="0 0 595.3 841.9"><style type="text/css">
	.st0{fill-rule_evenodd;clip-rule:evenodd;}
</style><g><polygon points="242.3,509.5 172.9,509.3 230.5,412.1 329.1,412.4 315.9,392.3 241.2,392.2 310.8,271 282.8,270.9    131.5,534.6 256.9,534.9  "></polygon><polygon points="317.6,277 254.2,385.2 283.5,385.3 318.5,325.5 373.5,424.2 323.6,509.3 347.6,507.9 385.4,443.5    455,564.7 469.1,540.5  "></polygon><polygon points="370.8,481.1 406.1,540.8 293.1,540.9 243,456 232.5,477.6 270.5,541.9 130.8,543.9 145,568    448.9,563.5 385.2,455.6  "></polygon></g><polygon class="st0" points="301.2,520 353,423.8 243.8,427 "></polygon></svg></g>
    <g id="title" style="font-style:normal;font-weight:800;font-size:72px;line-height:1;font-family:Overpass;font-variant-ligatures:none;text-align:center;text-anchor:middle" aria-label="ACKTEN">
      <path id="path579302" style="font-style: normal; font-weight: 800; font-size: 72px; line-height: 1; font-family: Overpass; font-variant-ligatures: none; text-align: center; text-anchor: middle; display: none;" d="m 409.22562,0 -3.888,-10.44 h -19.44 L 382.00963,0 h -10.44001 l 19.29601,-50.4 h 9.50399 l 19.296,50.4 z m -7.056,-19.296 -4.968,-13.104 q -1.152,-2.88 -1.584,-4.536 -0.43199,1.656 -1.58399,4.536 l -4.96801,13.104 z"></path>
      <path id="path579304" style="font-style: normal; font-weight: 800; font-size: 72px; line-height: 1; font-family: Overpass; font-variant-ligatures: none; text-align: center; text-anchor: middle;" d="m 444.3155,0.792 q -5.688,0 -9.936,-2.232 -4.248,-2.304 -6.624,-6.12 -2.376,-3.888 -3.528,-8.28 -1.08,-4.392 -1.08,-9.36 0,-4.608 1.152,-8.928 1.152,-4.392 3.528,-8.28 2.376,-3.96 6.624,-6.336 4.248,-2.448 9.864,-2.448 6.768,0 11.376,3.312 4.68,3.312 6.624,8.064 l -8.712,3.96 q -2.016,-3.096 -4.104,-4.536 -2.088,-1.44 -5.184,-1.44 -3.96,0 -6.624,2.736 -2.592,2.664 -3.528,6.264 -0.936,3.528 -0.936,7.632 0,6.552 2.808,11.592 2.88,5.04 8.28,5.04 5.256,0 9.144,-6.48 l 8.928,3.384 q -5.616,12.456 -18.072,12.456 z" transform="translate(0 302.2480000000007) translate(365.2144014084477 15.871999999998287) scale(1.6666666666667) translate(-423.1475 51.192)"></path>
      <path id="path579306" style="font-style: normal; font-weight: 800; font-size: 72px; line-height: 1; font-family: Overpass; font-variant-ligatures: none; text-align: center; text-anchor: middle;" d="m 503.1125,0 -12.96,-24.12 -9.36,11.52 V 0 h -9.72 v -50.4 h 9.72 v 24.048 l 19.08,-24.048 h 11.52 L 496.7045,-32.328 514.4885,0 Z" transform="translate(0 302.2480000000007) translate(458.4227347417829 17.191999999998323) scale(1.6666666666667) translate(-471.0725 50.4)"></path>
      <path id="path579308" style="font-style: normal; font-weight: 800; font-size: 72px; line-height: 1; font-family: Overpass; font-variant-ligatures: none; text-align: center; text-anchor: middle;" d="M 541.17125,-41.04 V 0 h -9.72 v -41.04 h -14.4 v -9.36 h 38.52 v 9.36 z" transform="translate(0 302.2480000000007) translate(548.3873180751181 17.191999999998323) scale(1.6666666666667) translate(-517.05125 50.4)"></path>
      <path id="path579310" style="font-style: normal; font-weight: 800; font-size: 72px; line-height: 1; font-family: Overpass; font-variant-ligatures: none; text-align: center; text-anchor: middle;" d="m 563.885,0 v -50.4 h 34.416 v 9.216 H 573.605 V -30.6 h 14.544 v 9.216 h -14.544 v 12.168 h 26.208 V 0 Z" transform="translate(0 302.2480000000007) translate(639.7769014084532 17.191999999998323) scale(1.6666666666667) translate(-563.885 50.4)"></path>
      <path id="path579312" style="font-style: normal; font-weight: 800; font-size: 72px; line-height: 1; font-family: Overpass; font-variant-ligatures: none; text-align: center; text-anchor: middle;" d="m 648.92038,0 h -8.64 l -20.01601,-29.376 q -1.00799,-1.512 -2.088,-3.816 0.21601,1.8 0.21601,3.816 V 0 h -9.64801 v -50.4 h 9.144 l 19.51201,29.016 q 1.22399,2.016 2.088,3.816 -0.21601,-1.728 -0.21601,-3.816 V -50.4 h 9.64801 z" transform="translate(0 302.2480000000007) translate(727.8758514084551 17.191999999998323) scale(1.6666666666667) translate(-608.74437 50.4)"></path>
    </g>
    <g id="tagline" style="font-style:normal;font-weight:500;font-size:32px;line-height:1;font-family:Montserrat;font-variant-ligatures:none;text-align:center;text-anchor:middle" aria-label="Make your metrics actionable">
      <path id="path579315" style="font-style: normal; font-weight: 500; font-size: 32px; line-height: 1; font-family: Montserrat; font-variant-ligatures: none; text-align: center; text-anchor: middle;" d="m 278.6895,-22.4 h 4.896 l 7.424,14.432 7.36,-14.432 h 4.896 V 0 h -3.936 v -16.064 l -6.976,13.76 h -2.752 l -7.008,-13.76 V 0 h -3.904 z" transform="translate(0 370.6000000000011) translate(336.3546874999999 57.68000000000001) scale(0.75) translate(-278.6895 22.4)"></path>
      <path id="path579317" style="font-style: normal; font-weight: 500; font-size: 32px; line-height: 1; font-family: Montserrat; font-variant-ligatures: none; text-align: center; text-anchor: middle;" d="m 318.704,0 v -2.08 q -0.896,1.12 -2.304,1.696 -1.408,0.576 -3.232,0.576 -1.792,0 -3.168,-0.672 -1.344,-0.704 -2.08,-1.92 -0.736,-1.216 -0.736,-2.72 0,-2.4 1.696,-3.744 1.696,-1.376 4.8,-1.408 h 4.992 v -0.448 q 0,-1.504 -0.992,-2.336 -0.992,-0.832 -2.88,-0.832 -2.432,0 -5.088,1.6 l -1.504,-2.88 q 2.016,-1.12 3.648,-1.6 1.664,-0.512 3.872,-0.512 3.328,0 5.152,1.6 1.856,1.6 1.888,4.48 L 322.8,0 Z m -4.544,-3.008 q 1.792,0 3.072,-0.832 1.28,-0.864 1.44,-2.112 v -1.536 h -4.32 q -1.664,0 -2.464,0.512 -0.768,0.48 -0.768,1.6 0,1.088 0.8,1.728 0.832,0.64 2.24,0.64 z" transform="translate(0 370.6000000000011) translate(357.7255624999999 61.519999999999996) scale(0.75) translate(-307.184 17.28)"></path>
      <path id="path579319" style="font-style: normal; font-weight: 500; font-size: 32px; line-height: 1; font-family: Montserrat; font-variant-ligatures: none; text-align: center; text-anchor: middle;" d="m 339.051,0 -4.64,-7.488 -2.624,2.752 V 0 h -4.16 v -23.744 h 4.16 v 13.76 l 7.04,-7.104 h 4.8 l -6.336,6.592 6.72,10.496 z" transform="translate(0 370.6000000000011) translate(373.0578124999999 56.672) scale(0.75) translate(-327.627 23.744)"></path>
      <path id="path579321" style="font-style: normal; font-weight: 500; font-size: 32px; line-height: 1; font-family: Montserrat; font-variant-ligatures: none; text-align: center; text-anchor: middle;" d="m 353.1655,-17.248 q 4.096,0 6.144,2.336 2.08,2.336 2.08,6.56 0,0.832 -0.032,1.248 h -12.64 q 0.416,1.824 1.696,2.88 1.312,1.024 3.2,1.024 1.312,0 2.496,-0.48 1.216,-0.512 2.112,-1.44 l 2.24,2.336 q -1.28,1.408 -3.136,2.176 -1.824,0.768 -4.064,0.768 -2.624,0 -4.64,-1.088 -1.984,-1.088 -3.072,-3.04 -1.088,-1.984 -1.088,-4.544 0,-2.56 1.088,-4.544 1.12,-1.984 3.104,-3.072 1.984,-1.12 4.512,-1.12 z m 4.416,7.36 q -0.064,-1.888 -1.248,-3.008 -1.184,-1.12 -3.136,-1.12 -1.824,0 -3.072,1.12 -1.216,1.088 -1.504,3.008 z" transform="translate(0 370.6000000000011) translate(385.6836874999999 61.544) scale(0.75) translate(-344.4615 17.248)"></path>
      <path id="path579323" style="font-style: normal; font-weight: 500; font-size: 32px; line-height: 1; font-family: Montserrat; font-variant-ligatures: none; text-align: center; text-anchor: middle;" d="m 380.1075,2.144 q -0.8,2.112 -2.304,3.168 -1.472,1.088 -3.52,1.088 -1.248,0 -2.272,-0.384 -0.992,-0.352 -1.984,-1.152 l 1.792,-3.168 q 0.608,0.448 1.12,0.64 0.512,0.224 1.088,0.224 1.696,0 2.496,-1.728 l 0.512,-1.12 -7.072,-16.832 h 4.32 l 4.864,12.448 4.448,-12.448 h 4.192 z" transform="translate(0 370.6000000000011) translate(404.8101874999999 61.64) scale(0.75) translate(-369.9635 17.12)"></path>
      <path id="path579325" style="font-style: normal; font-weight: 500; font-size: 32px; line-height: 1; font-family: Montserrat; font-variant-ligatures: none; text-align: center; text-anchor: middle;" d="m 397.08,-17.248 q 2.656,0 4.672,1.088 2.048,1.088 3.168,3.072 1.152,1.952 1.152,4.512 0,2.592 -1.152,4.576 -1.12,1.984 -3.168,3.072 -2.016,1.088 -4.672,1.088 -2.688,0 -4.736,-1.088 -2.048,-1.088 -3.2,-3.072 -1.12,-1.984 -1.12,-4.576 0,-2.56 1.12,-4.512 1.152,-1.984 3.2,-3.072 2.048,-1.088 4.736,-1.088 z m 0,3.552 q -2.176,0 -3.52,1.44 -1.344,1.44 -1.344,3.744 0,2.304 1.344,3.744 1.344,1.44 3.52,1.44 2.112,0 3.456,-1.44 1.344,-1.44 1.344,-3.744 0,-2.304 -1.344,-3.744 -1.344,-1.44 -3.456,-1.44 z" transform="translate(0 370.6000000000011) translate(418.3555624999999 61.544) scale(0.75) translate(-388.024 17.248)"></path>
      <path id="path579327" style="font-style: normal; font-weight: 500; font-size: 32px; line-height: 1; font-family: Montserrat; font-variant-ligatures: none; text-align: center; text-anchor: middle;" d="M 425.525,-17.12 V 0 h -4.192 v -3.168 q -1.728,3.328 -5.952,3.328 -2.88,0 -4.544,-1.76 -1.664,-1.76 -1.664,-4.8 v -10.72 h 4.192 v 9.504 q 0,1.792 0.96,2.816 0.992,1.024 2.72,1.024 1.984,-0.032 3.136,-1.408 1.152,-1.376 1.152,-3.488 v -8.448 z" transform="translate(0 370.6000000000011) translate(434.21731249999993 61.64) scale(0.75) translate(-409.173 17.12)"></path>
      <path id="path579329" style="font-style: normal; font-weight: 500; font-size: 32px; line-height: 1; font-family: Montserrat; font-variant-ligatures: none; text-align: center; text-anchor: middle;" d="m 434.877,-13.824 q 0.864,-1.664 2.336,-2.528 1.504,-0.896 3.488,-0.928 v 4.032 q -2.656,-0.16 -4.256,1.248 -1.568,1.376 -1.568,3.744 V 0 h -4.16 v -17.12 h 4.16 z" transform="translate(0 370.6000000000011) translate(450.37531249999995 61.519999999999996) scale(0.75) translate(-430.717 17.28)"></path>
      <path id="path579331" style="font-style: normal; font-weight: 500; font-size: 32px; line-height: 1; font-family: Montserrat; font-variant-ligatures: none; text-align: center; text-anchor: middle;" d="m 473.8365,-17.28 q 2.912,0 4.576,1.792 1.664,1.76 1.664,4.8 V 0 h -4.192 v -9.472 q 0,-1.824 -1.024,-2.848 -0.992,-1.056 -2.72,-1.056 -1.984,0.064 -3.168,1.44 -1.152,1.376 -1.152,3.488 V 0 h -4.192 v -9.472 q 0,-1.824 -0.992,-2.848 -0.992,-1.056 -2.72,-1.056 -2.016,0.064 -3.2,1.44 -1.152,1.376 -1.152,3.488 V 0 h -4.16 v -17.12 h 4.16 v 3.168 q 1.696,-3.264 6.016,-3.328 2.24,0 3.744,1.088 1.536,1.056 2.144,3.008 1.632,-4.032 6.368,-4.096 z" transform="translate(0 370.6000000000011) translate(465.89093749999995 61.519999999999996) scale(0.75) translate(-451.4045 17.28)"></path>
      <path id="path579333" style="font-style: normal; font-weight: 500; font-size: 32px; line-height: 1; font-family: Montserrat; font-variant-ligatures: none; text-align: center; text-anchor: middle;" d="m 491.853,-17.248 q 4.096,0 6.144,2.336 2.08,2.336 2.08,6.56 0,0.832 -0.032,1.248 h -12.64 q 0.416,1.824 1.696,2.88 1.312,1.024 3.2,1.024 1.312,0 2.496,-0.48 1.216,-0.512 2.112,-1.44 l 2.24,2.336 q -1.28,1.408 -3.136,2.176 -1.824,0.768 -4.064,0.768 -2.624,0 -4.64,-1.088 -1.984,-1.088 -3.072,-3.04 -1.088,-1.984 -1.088,-4.544 0,-2.56 1.088,-4.544 1.12,-1.984 3.104,-3.072 1.984,-1.12 4.512,-1.12 z m 4.416,7.36 q -0.064,-1.888 -1.248,-3.008 -1.184,-1.12 -3.136,-1.12 -1.824,0 -3.072,1.12 -1.216,1.088 -1.504,3.008 z" transform="translate(0 370.6000000000011) translate(489.69931249999996 61.544) scale(0.75) translate(-483.149 17.248)"></path>
      <path id="path579335" style="font-style: normal; font-weight: 500; font-size: 32px; line-height: 1; font-family: Montserrat; font-variant-ligatures: none; text-align: center; text-anchor: middle;" d="m 513.6705,-1.056 q -2.048,1.248 -4.288,1.248 -2.208,0 -3.616,-1.28 -1.408,-1.312 -1.408,-3.84 v -8.448 h -2.4 l -0.032,-3.04 h 2.432 v -4.704 h 4.128 v 4.704 h 4.896 v 3.04 h -4.896 v 7.712 q 0,1.184 0.448,1.696 0.448,0.48 1.344,0.48 0.96,0 2.432,-0.704 z" transform="translate(0 370.6000000000011) translate(503.78243749999996 58.64) scale(0.75) translate(-501.9265 21.12)"></path>
      <path id="path579337" style="font-style: normal; font-weight: 500; font-size: 32px; line-height: 1; font-family: Montserrat; font-variant-ligatures: none; text-align: center; text-anchor: middle;" d="m 521.0645,-13.824 q 0.864,-1.664 2.336,-2.528 1.504,-0.896 3.488,-0.928 v 4.032 q -2.656,-0.16 -4.256,1.248 -1.568,1.376 -1.568,3.744 V 0 h -4.16 v -17.12 h 4.16 z" transform="translate(0 370.6000000000011) translate(515.0159375000001 61.519999999999996) scale(0.75) translate(-516.9045 17.28)"></path>
      <path id="path579339" style="font-style: normal; font-weight: 500; font-size: 32px; line-height: 1; font-family: Montserrat; font-variant-ligatures: none; text-align: center; text-anchor: middle;" d="m 529.7795,-17.12 h 4.16 V 0 h -4.16 z m 2.048,-7.36 q 1.024,0 1.696,0.704 0.672,0.704 0.672,1.792 0,1.056 -0.672,1.76 -0.672,0.704 -1.696,0.704 -1.024,0 -1.696,-0.704 -0.672,-0.704 -0.672,-1.76 0,-1.088 0.672,-1.792 0.672,-0.704 1.696,-0.704 z" transform="translate(0 370.6000000000011) translate(524.4321875000002 56.120000000000005) scale(0.75) translate(-529.4595 24.48)"></path>
      <path id="path579341" style="font-style: normal; font-weight: 500; font-size: 32px; line-height: 1; font-family: Montserrat; font-variant-ligatures: none; text-align: center; text-anchor: middle;" d="m 550.868,-11.712 q -1.728,-1.888 -4.48,-1.888 -2.08,0 -3.392,1.408 -1.28,1.408 -1.28,3.648 0,2.304 1.28,3.712 1.312,1.408 3.392,1.408 3.072,0 4.608,-2.016 l 2.592,2.144 q -1.152,1.664 -3.04,2.56 -1.888,0.896 -4.384,0.896 -2.528,0 -4.512,-1.088 -1.952,-1.088 -3.04,-3.04 -1.088,-1.984 -1.088,-4.544 0,-2.592 1.088,-4.576 1.12,-1.984 3.072,-3.072 1.984,-1.088 4.544,-1.088 2.336,0 4.16,0.832 1.856,0.8 3.008,2.304 z" transform="translate(0 370.6000000000011) translate(530.4805625000001 61.544) scale(0.75) translate(-537.524 17.248)"></path>
      <path id="path579343" style="font-style: normal; font-weight: 500; font-size: 32px; line-height: 1; font-family: Montserrat; font-variant-ligatures: none; text-align: center; text-anchor: middle;" d="m 567.2985,-12.48 q -1.248,-0.736 -2.592,-1.152 -1.312,-0.416 -2.432,-0.416 -1.056,0 -1.696,0.384 -0.608,0.352 -0.608,1.12 0,0.8 0.768,1.248 0.8,0.416 2.496,0.896 1.792,0.544 2.944,1.088 1.152,0.512 1.984,1.568 0.864,1.024 0.864,2.72 0,2.496 -1.92,3.84 -1.92,1.344 -4.832,1.344 -1.984,0 -3.872,-0.608 -1.888,-0.64 -3.2,-1.792 l 1.44,-2.912 q 1.152,0.992 2.752,1.568 1.6,0.544 3.04,0.544 1.152,0 1.824,-0.384 0.704,-0.416 0.704,-1.216 0,-0.896 -0.8,-1.344 -0.8,-0.448 -2.592,-0.992 -1.728,-0.512 -2.816,-0.992 -1.088,-0.512 -1.888,-1.504 -0.8,-1.024 -0.8,-2.656 0,-2.528 1.824,-3.84 1.856,-1.344 4.64,-1.344 1.696,0 3.328,0.48 1.664,0.48 2.944,1.344 z" transform="translate(0 370.6000000000011) translate(543.7394375000001 61.495999999999995) scale(0.75) translate(-555.2025 17.312)"></path>
      <path id="path579345" style="font-style: normal; font-weight: 500; font-size: 32px; line-height: 1; font-family: Montserrat; font-variant-ligatures: none; text-align: center; text-anchor: middle;" d="m 590.5165,0 v -2.08 q -0.896,1.12 -2.304,1.696 -1.408,0.576 -3.232,0.576 -1.792,0 -3.168,-0.672 -1.344,-0.704 -2.08,-1.92 -0.736,-1.216 -0.736,-2.72 0,-2.4 1.696,-3.744 1.696,-1.376 4.8,-1.408 h 4.992 v -0.448 q 0,-1.504 -0.992,-2.336 -0.992,-0.832 -2.88,-0.832 -2.432,0 -5.088,1.6 l -1.504,-2.88 q 2.016,-1.12 3.648,-1.6 1.664,-0.512 3.872,-0.512 3.328,0 5.152,1.6 1.856,1.6 1.888,4.48 l 0.032,11.2 z m -4.544,-3.008 q 1.792,0 3.072,-0.832 1.28,-0.864 1.44,-2.112 v -1.536 h -4.32 q -1.664,0 -2.464,0.512 -0.768,0.48 -0.768,1.6 0,1.088 0.8,1.728 0.832,0.64 2.24,0.64 z" transform="translate(0 370.6000000000011) translate(561.5849375000003 61.519999999999996) scale(0.75) translate(-578.9965 17.28)"></path>
      <path id="path579347" style="font-style: normal; font-weight: 500; font-size: 32px; line-height: 1; font-family: Montserrat; font-variant-ligatures: none; text-align: center; text-anchor: middle;" d="m 611.0555,-11.712 q -1.728,-1.888 -4.48,-1.888 -2.08,0 -3.392,1.408 -1.28,1.408 -1.28,3.648 0,2.304 1.28,3.712 1.312,1.408 3.392,1.408 3.072,0 4.608,-2.016 l 2.592,2.144 q -1.152,1.664 -3.04,2.56 -1.888,0.896 -4.384,0.896 -2.528,0 -4.512,-1.088 -1.952,-1.088 -3.04,-3.04 -1.088,-1.984 -1.088,-4.544 0,-2.592 1.088,-4.576 1.12,-1.984 3.072,-3.072 1.984,-1.088 4.544,-1.088 2.336,0 4.16,0.832 1.856,0.8 3.008,2.304 z" transform="translate(0 370.6000000000011) translate(575.6211875000002 61.544) scale(0.75) translate(-597.7115 17.248)"></path>
      <path id="path579349" style="font-style: normal; font-weight: 500; font-size: 32px; line-height: 1; font-family: Montserrat; font-variant-ligatures: none; text-align: center; text-anchor: middle;" d="m 627.358,-1.056 q -2.048,1.248 -4.288,1.248 -2.208,0 -3.616,-1.28 -1.408,-1.312 -1.408,-3.84 v -8.448 h -2.4 l -0.032,-3.04 h 2.432 v -4.704 h 4.128 v 4.704 h 4.896 v 3.04 h -4.896 v 7.712 q 0,1.184 0.448,1.696 0.448,0.48 1.344,0.48 0.96,0 2.432,-0.704 z" transform="translate(0 370.6000000000011) translate(589.0480625000002 58.64) scale(0.75) translate(-615.614 21.12)"></path>
      <path id="path579351" style="font-style: normal; font-weight: 500; font-size: 32px; line-height: 1; font-family: Montserrat; font-variant-ligatures: none; text-align: center; text-anchor: middle;" d="m 630.592,-17.12 h 4.16 V 0 h -4.16 z m 2.048,-7.36 q 1.024,0 1.696,0.704 0.672,0.704 0.672,1.792 0,1.056 -0.672,1.76 -0.672,0.704 -1.696,0.704 -1.024,0 -1.696,-0.704 -0.672,-0.704 -0.672,-1.76 0,-1.088 0.672,-1.792 0.672,-0.704 1.696,-0.704 z" transform="translate(0 370.6000000000011) translate(600.0415625000003 56.120000000000005) scale(0.75) translate(-630.272 24.48)"></path>
      <path id="path579353" style="font-style: normal; font-weight: 500; font-size: 32px; line-height: 1; font-family: Montserrat; font-variant-ligatures: none; text-align: center; text-anchor: middle;" d="m 647.3925,-17.248 q 2.656,0 4.672,1.088 2.048,1.088 3.168,3.072 1.152,1.952 1.152,4.512 0,2.592 -1.152,4.576 -1.12,1.984 -3.168,3.072 -2.016,1.088 -4.672,1.088 -2.688,0 -4.736,-1.088 -2.048,-1.088 -3.2,-3.072 -1.12,-1.984 -1.12,-4.576 0,-2.56 1.12,-4.512 1.152,-1.984 3.2,-3.072 2.048,-1.088 4.736,-1.088 z m 0,3.552 q -2.176,0 -3.52,1.44 -1.344,1.44 -1.344,3.744 0,2.304 1.344,3.744 1.344,1.44 3.52,1.44 2.112,0 3.456,-1.44 1.344,-1.44 1.344,-3.744 0,-2.304 -1.344,-3.744 -1.344,-1.44 -3.456,-1.44 z" transform="translate(0 370.6000000000011) translate(606.0899375000002 61.544) scale(0.75) translate(-638.3365 17.248)"></path>
      <path id="path579355" style="font-style: normal; font-weight: 500; font-size: 32px; line-height: 1; font-family: Montserrat; font-variant-ligatures: none; text-align: center; text-anchor: middle;" d="m 670.3335,-17.28 q 2.944,0 4.64,1.792 1.696,1.76 1.696,4.8 V 0 h -4.192 v -9.472 q 0,-1.792 -1.024,-2.816 -1.024,-1.056 -2.784,-1.056 -2.08,0.032 -3.296,1.408 -1.184,1.376 -1.184,3.52 V 0 h -4.16 v -17.12 h 4.16 v 3.2 q 1.76,-3.296 6.144,-3.36 z" transform="translate(0 370.6000000000011) translate(622.3596875000002 61.519999999999996) scale(0.75) translate(-660.0295 17.28)"></path>
      <path id="path579357" style="font-style: normal; font-weight: 500; font-size: 32px; line-height: 1; font-family: Montserrat; font-variant-ligatures: none; text-align: center; text-anchor: middle;" d="m 691.454,0 v -2.08 q -0.896,1.12 -2.304,1.696 -1.408,0.576 -3.232,0.576 -1.792,0 -3.168,-0.672 -1.344,-0.704 -2.08,-1.92 -0.736,-1.216 -0.736,-2.72 0,-2.4 1.696,-3.744 1.696,-1.376 4.8,-1.408 h 4.992 v -0.448 q 0,-1.504 -0.992,-2.336 -0.992,-0.832 -2.88,-0.832 -2.432,0 -5.088,1.6 l -1.504,-2.88 q 2.016,-1.12 3.648,-1.6 1.664,-0.512 3.872,-0.512 3.328,0 5.152,1.6 1.856,1.6 1.888,4.48 L 695.55,0 Z m -4.544,-3.008 q 1.792,0 3.072,-0.832 1.28,-0.864 1.44,-2.112 v -1.536 h -4.32 q -1.664,0 -2.464,0.512 -0.768,0.48 -0.768,1.6 0,1.088 0.8,1.728 0.832,0.64 2.24,0.64 z" transform="translate(0 370.6000000000011) translate(637.2880625000003 61.519999999999996) scale(0.75) translate(-679.934 17.28)"></path>
      <path id="path579359" style="font-style: normal; font-weight: 500; font-size: 32px; line-height: 1; font-family: Montserrat; font-variant-ligatures: none; text-align: center; text-anchor: middle;" d="m 710.297,-17.248 q 2.4,0 4.224,1.12 1.856,1.088 2.848,3.072 1.024,1.984 1.024,4.576 0,2.56 -0.992,4.512 -0.992,1.952 -2.816,3.04 -1.824,1.088 -4.224,1.088 -1.92,0 -3.392,-0.736 -1.472,-0.768 -2.432,-2.208 V 0 h -4.16 v -23.744 h 4.16 v 9.44 q 0.928,-1.44 2.368,-2.176 1.472,-0.768 3.392,-0.768 z m -0.928,13.824 q 2.112,0 3.456,-1.44 1.344,-1.472 1.344,-3.744 0,-2.272 -1.344,-3.712 -1.344,-1.44 -3.456,-1.44 -2.144,0 -3.488,1.44 -1.344,1.44 -1.344,3.712 0,2.304 1.344,3.744 1.344,1.44 3.488,1.44 z" transform="translate(0 370.6000000000011) translate(652.6203125000002 56.672) scale(0.75) translate(-700.377 23.744)"></path>
      <path id="path579361" style="font-style: normal; font-weight: 500; font-size: 32px; line-height: 1; font-family: Montserrat; font-variant-ligatures: none; text-align: center; text-anchor: middle;" d="m 722.1895,-23.744 h 4.16 V 0 h -4.16 z" transform="translate(0 370.6000000000011) translate(668.9796875000002 56.672) scale(0.75) translate(-722.1895 23.744)"></path>
      <path id="path579363" style="font-style: normal; font-weight: 500; font-size: 32px; line-height: 1; font-family: Montserrat; font-variant-ligatures: none; text-align: center; text-anchor: middle;" d="m 738.853,-17.248 q 4.096,0 6.144,2.336 2.08,2.336 2.08,6.56 0,0.832 -0.032,1.248 h -12.64 q 0.416,1.824 1.696,2.88 1.312,1.024 3.2,1.024 1.312,0 2.496,-0.48 1.216,-0.512 2.112,-1.44 l 2.24,2.336 q -1.28,1.408 -3.136,2.176 -1.824,0.768 -4.064,0.768 -2.624,0 -4.64,-1.088 -1.984,-1.088 -3.072,-3.04 -1.088,-1.984 -1.088,-4.544 0,-2.56 1.088,-4.544 1.12,-1.984 3.104,-3.072 1.984,-1.12 4.512,-1.12 z m 4.416,7.36 q -0.064,-1.888 -1.248,-3.008 -1.184,-1.12 -3.136,-1.12 -1.824,0 -3.072,1.12 -1.216,1.088 -1.504,3.008 z" transform="translate(0 370.6000000000011) translate(674.9493125000002 61.544) scale(0.75) translate(-730.149 17.248)"></path>
    </g>
  </g>
</svg>
